<svg xmlns="http://www.w3.org/2000/svg" viewBox="0 0 1000 240" width="1000" height="240"
     font-family="ui-monospace, SFMono-Regular, Menlo, Consolas, 'DejaVu Sans Mono', monospace" role="img" aria-label="Contribution telemetry">

  <defs>
    <pattern id="scanTL" width="3" height="3" patternUnits="userSpaceOnUse">
      <line x1="0" y1="2.5" x2="3" y2="2.5" stroke="#22E6FF" stroke-opacity="0.045" stroke-width="1"/>
    </pattern>
    <pattern id="gridTL" width="34" height="20" patternUnits="userSpaceOnUse">
      <path d="M0 10 L8.5 0 L25.5 0 L34 10 L25.5 20 L8.5 20 Z" fill="none"
            stroke="#22E6FF" stroke-opacity="0.05" stroke-width="0.8"/>
    </pattern>
    <clipPath id="clipTL"><rect x="0" y="0" width="1000" height="240"/></clipPath>
  </defs>
  <g clip-path="url(#clipTL)">
    <rect width="1000" height="240" fill="#04090C"/>
    <rect width="1000" height="240" fill="url(#gridTL)"/>
    <rect width="1000" height="240" fill="url(#scanTL)"/>
    <rect x="0" y="0" width="1000" height="2" fill="#22E6FF" opacity="0">
      <animate attributeName="y" values="0;240;0" dur="8s" repeatCount="indefinite"/>
      <animate attributeName="opacity" values="0;0.25;0" dur="8s" repeatCount="indefinite"/>
    </rect>
  </g>
  <rect x="1" y="1" width="998" height="238" fill="none" stroke="#0E3A47" stroke-width="1.4"/>
  <g stroke="#22E6FF" stroke-width="1.8" fill="none" stroke-linecap="square">
    <path d="M9,25 L9,9 L25,9"/>
    <path d="M975,9 L991,9 L991,25"/>
    <path d="M991,215 L991,231 L975,231"/>
    <path d="M25,231 L9,231 L9,215"/>
  </g>
  <rect x="9" y="9" width="982" height="26" fill="#22E6FF" fill-opacity="0.06"/>
  <line x1="9" y1="35" x2="991" y2="35" stroke="#0E3A47" stroke-width="1"/>
  <text x="24" y="27" font-size="12.5" fill="#22E6FF" letter-spacing="2.6">CONTRIBUTION TELEMETRY</text>
  <text x="976" y="27" font-size="10.5" fill="#4C7480" letter-spacing="1.8"
        text-anchor="end">xfOS/0x05</text>
  <defs>
    <linearGradient id="areaTL" x1="0" y1="0" x2="0" y2="1">
      <stop offset="0%" stop-color="#22E6FF" stop-opacity="0.34"/>
      <stop offset="100%" stop-color="#22E6FF" stop-opacity="0.02"/>
    </linearGradient>
  </defs>
  <text x="26" y="54" font-size="10.5" fill="#4C7480" letter-spacing="1.4">TRAILING 90 DAYS &#183; 604 EVENTS &#183; PEAK 105 ON 01 AUG 2026</text>
  <line x1="62" y1="196.0" x2="970" y2="196.0" stroke="#0E3A47" stroke-width="1" stroke-dasharray="3 5"/><text x="52" y="200.0" font-size="9.5" fill="#4C7480" text-anchor="end">0</text><line x1="62" y1="168.0" x2="970" y2="168.0" stroke="#0E3A47" stroke-width="1" stroke-dasharray="3 5"/><text x="52" y="172.0" font-size="9.5" fill="#4C7480" text-anchor="end">30</text><line x1="62" y1="140.0" x2="970" y2="140.0" stroke="#0E3A47" stroke-width="1" stroke-dasharray="3 5"/><text x="52" y="144.0" font-size="9.5" fill="#4C7480" text-anchor="end">60</text><line x1="62" y1="112.0" x2="970" y2="112.0" stroke="#0E3A47" stroke-width="1" stroke-dasharray="3 5"/><text x="52" y="116.0" font-size="9.5" fill="#4C7480" text-anchor="end">90</text><line x1="62" y1="84.0" x2="970" y2="84.0" stroke="#0E3A47" stroke-width="1" stroke-dasharray="3 5"/><text x="52" y="88.0" font-size="9.5" fill="#4C7480" text-anchor="end">120</text>
  <polygon points="62,196 62.0,196.0 72.2,196.0 82.4,193.2 92.6,196.0 102.8,196.0 113.0,196.0 123.2,196.0 133.4,185.7 143.6,188.5 153.8,196.0 164.0,196.0 174.2,184.8 184.4,186.7 194.6,194.1 204.8,196.0 215.0,196.0 225.2,196.0 235.4,196.0 245.6,196.0 255.8,196.0 266.0,196.0 276.2,196.0 286.4,196.0 296.7,196.0 306.9,193.2 317.1,196.0 327.3,177.3 337.5,193.2 347.7,196.0 357.9,196.0 368.1,196.0 378.3,195.1 388.5,196.0 398.7,196.0 408.9,196.0 419.1,196.0 429.3,196.0 439.5,183.9 449.7,195.1 459.9,196.0 470.1,196.0 480.3,196.0 490.5,195.1 500.7,196.0 510.9,196.0 521.1,196.0 531.3,196.0 541.5,196.0 551.7,196.0 561.9,196.0 572.1,196.0 582.3,196.0 592.5,190.4 602.7,188.5 612.9,191.3 623.1,194.1 633.3,191.3 643.5,196.0 653.7,196.0 663.9,196.0 674.1,196.0 684.3,196.0 694.5,196.0 704.7,196.0 714.9,196.0 725.1,196.0 735.3,191.3 745.6,196.0 755.8,191.3 766.0,176.4 776.2,187.6 786.4,143.7 796.6,194.1 806.8,196.0 817.0,196.0 827.2,98.0 837.4,160.5 847.6,179.2 857.8,151.2 868.0,168.0 878.2,179.2 888.4,134.4 898.6,144.7 908.8,193.2 919.0,190.4 929.2,193.2 939.4,196.0 949.6,194.1 959.8,196.0 970.0,196.0 970.0,196" fill="url(#areaTL)"/>
  <polyline points="62.0,196.0 72.2,196.0 82.4,193.2 92.6,196.0 102.8,196.0 113.0,196.0 123.2,196.0 133.4,185.7 143.6,188.5 153.8,196.0 164.0,196.0 174.2,184.8 184.4,186.7 194.6,194.1 204.8,196.0 215.0,196.0 225.2,196.0 235.4,196.0 245.6,196.0 255.8,196.0 266.0,196.0 276.2,196.0 286.4,196.0 296.7,196.0 306.9,193.2 317.1,196.0 327.3,177.3 337.5,193.2 347.7,196.0 357.9,196.0 368.1,196.0 378.3,195.1 388.5,196.0 398.7,196.0 408.9,196.0 419.1,196.0 429.3,196.0 439.5,183.9 449.7,195.1 459.9,196.0 470.1,196.0 480.3,196.0 490.5,195.1 500.7,196.0 510.9,196.0 521.1,196.0 531.3,196.0 541.5,196.0 551.7,196.0 561.9,196.0 572.1,196.0 582.3,196.0 592.5,190.4 602.7,188.5 612.9,191.3 623.1,194.1 633.3,191.3 643.5,196.0 653.7,196.0 663.9,196.0 674.1,196.0 684.3,196.0 694.5,196.0 704.7,196.0 714.9,196.0 725.1,196.0 735.3,191.3 745.6,196.0 755.8,191.3 766.0,176.4 776.2,187.6 786.4,143.7 796.6,194.1 806.8,196.0 817.0,196.0 827.2,98.0 837.4,160.5 847.6,179.2 857.8,151.2 868.0,168.0 878.2,179.2 888.4,134.4 898.6,144.7 908.8,193.2 919.0,190.4 929.2,193.2 939.4,196.0 949.6,194.1 959.8,196.0 970.0,196.0" fill="none" stroke="#22E6FF" stroke-width="1.8" stroke-linejoin="round"/>
  <line x1="62" y1="196" x2="970" y2="196" stroke="#10505F" stroke-width="1.2"/>
  <line x1="62.0" y1="196" x2="62.0" y2="201" stroke="#10505F" stroke-width="1"/><text x="62.0" y="214" font-size="9.5" fill="#4C7480" text-anchor="middle" letter-spacing="1">MAY</text><line x1="204.8" y1="196" x2="204.8" y2="201" stroke="#10505F" stroke-width="1"/><text x="204.8" y="214" font-size="9.5" fill="#4C7480" text-anchor="middle" letter-spacing="1">JUN</text><line x1="510.9" y1="196" x2="510.9" y2="201" stroke="#10505F" stroke-width="1"/><text x="510.9" y="214" font-size="9.5" fill="#4C7480" text-anchor="middle" letter-spacing="1">JUL</text><line x1="827.2" y1="196" x2="827.2" y2="201" stroke="#10505F" stroke-width="1"/><text x="827.2" y="214" font-size="9.5" fill="#4C7480" text-anchor="middle" letter-spacing="1">AUG</text>
  <circle cx="827.2" cy="98.0" r="4" fill="#FFB020"/>
  <circle cx="827.2" cy="98.0" r="4" fill="none" stroke="#FFB020" stroke-width="1.5">
    <animate attributeName="r" values="4;11;4" dur="2.4s" repeatCount="indefinite"/>
    <animate attributeName="stroke-opacity" values="0.9;0;0.9" dur="2.4s" repeatCount="indefinite"/>
  </circle>
  <line x1="62" y1="84" x2="62" y2="196" stroke="#22E6FF" stroke-width="1" stroke-opacity="0.45">
    <animate attributeName="x1" values="62;970;62" dur="11s" repeatCount="indefinite"/>
    <animate attributeName="x2" values="62;970;62" dur="11s" repeatCount="indefinite"/>
  </line>
  <text x="970" y="74" font-size="9.5" fill="#4C7480" text-anchor="end" letter-spacing="1.2">EVENTS / DAY</text>
</svg>
