<svg xmlns="http://www.w3.org/2000/svg" viewBox="0 0 1000 46" width="1000" height="46"
     font-family="ui-monospace, SFMono-Regular, Menlo, Consolas, 'DejaVu Sans Mono', monospace" role="img" aria-label="ACTIVITY LOG">

  <defs>
    <pattern id="scanH1" width="3" height="3" patternUnits="userSpaceOnUse">
      <line x1="0" y1="2.5" x2="3" y2="2.5" stroke="#22E6FF" stroke-opacity="0.045" stroke-width="1"/>
    </pattern>
    <pattern id="gridH1" width="34" height="20" patternUnits="userSpaceOnUse">
      <path d="M0 10 L8.5 0 L25.5 0 L34 10 L25.5 20 L8.5 20 Z" fill="none"
            stroke="#22E6FF" stroke-opacity="0.05" stroke-width="0.8"/>
    </pattern>
    <linearGradient id="vigH1" x1="0" y1="0" x2="0" y2="1">
      <stop offset="0%" stop-color="#000" stop-opacity="0.55"/>
      <stop offset="22%" stop-color="#000" stop-opacity="0"/>
      <stop offset="78%" stop-color="#000" stop-opacity="0"/>
      <stop offset="100%" stop-color="#000" stop-opacity="0.6"/>
    </linearGradient>
    <linearGradient id="glowH1" x1="0" y1="0" x2="1" y2="0">
      <stop offset="0%" stop-color="#22E6FF" stop-opacity="0"/>
      <stop offset="50%" stop-color="#22E6FF" stop-opacity="0.85"/>
      <stop offset="100%" stop-color="#22E6FF" stop-opacity="0"/>
    </linearGradient>
    <clipPath id="clipH1"><rect x="0" y="0" width="1000" height="46"/></clipPath>
  </defs>

  <g clip-path="url(#clipH1)">
    <rect width="1000" height="46" fill="#04090C"/>
    <rect width="1000" height="46" fill="url(#gridH1)"/>
    <rect width="1000" height="46" fill="url(#scanH1)"/>
    <rect width="1000" height="46" fill="url(#vigH1)"/>
  </g>
  <path d="M0,0 L153.2,0 L169.2,46 L0,46 Z" fill="#22E6FF" fill-opacity="0.14"/>
  <path d="M0,0 L153.2,0 L169.2,46 L0,46 Z" fill="none" stroke="#22E6FF" stroke-opacity="0.55" stroke-width="1.4"/>
  <rect x="0" y="0" width="4" height="46" fill="#22E6FF"/>
  <text x="18" y="29" font-size="15" fill="#22E6FF" letter-spacing="3.2">ACTIVITY LOG</text>
  <line x1="181.2" y1="23.0" x2="850" y2="23.0" stroke="#0E3A47" stroke-width="1"/>
  <rect x="187.2" y="26" width="6" height="2" fill="#10505F"/><rect x="201.2" y="26" width="6" height="2" fill="#10505F"/><rect x="215.2" y="26" width="6" height="2" fill="#10505F"/><rect x="229.2" y="26" width="6" height="2" fill="#10505F"/><rect x="243.2" y="26" width="6" height="2" fill="#10505F"/><rect x="257.2" y="26" width="6" height="2" fill="#10505F"/><rect x="271.2" y="26" width="6" height="2" fill="#10505F"/><rect x="285.2" y="26" width="6" height="2" fill="#10505F"/><rect x="299.2" y="26" width="6" height="2" fill="#10505F"/><rect x="313.2" y="26" width="6" height="2" fill="#10505F"/><rect x="327.2" y="26" width="6" height="2" fill="#10505F"/><rect x="341.2" y="26" width="6" height="2" fill="#10505F"/><rect x="355.2" y="26" width="6" height="2" fill="#10505F"/><rect x="369.2" y="26" width="6" height="2" fill="#10505F"/><rect x="383.2" y="26" width="6" height="2" fill="#10505F"/><rect x="397.2" y="26" width="6" height="2" fill="#10505F"/><rect x="411.2" y="26" width="6" height="2" fill="#10505F"/><rect x="425.2" y="26" width="6" height="2" fill="#10505F"/><rect x="439.2" y="26" width="6" height="2" fill="#10505F"/><rect x="453.2" y="26" width="6" height="2" fill="#10505F"/><rect x="467.2" y="26" width="6" height="2" fill="#10505F"/><rect x="481.2" y="26" width="6" height="2" fill="#10505F"/><rect x="495.2" y="26" width="6" height="2" fill="#10505F"/><rect x="509.2" y="26" width="6" height="2" fill="#10505F"/><rect x="523.2" y="26" width="6" height="2" fill="#10505F"/><rect x="537.2" y="26" width="6" height="2" fill="#10505F"/><rect x="551.2" y="26" width="6" height="2" fill="#10505F"/><rect x="565.2" y="26" width="6" height="2" fill="#10505F"/><rect x="579.2" y="26" width="6" height="2" fill="#10505F"/><rect x="593.2" y="26" width="6" height="2" fill="#10505F"/><rect x="607.2" y="26" width="6" height="2" fill="#10505F"/><rect x="621.2" y="26" width="6" height="2" fill="#10505F"/><rect x="635.2" y="26" width="6" height="2" fill="#10505F"/><rect x="649.2" y="26" width="6" height="2" fill="#10505F"/><rect x="663.2" y="26" width="6" height="2" fill="#10505F"/><rect x="677.2" y="26" width="6" height="2" fill="#10505F"/><rect x="691.2" y="26" width="6" height="2" fill="#10505F"/><rect x="705.2" y="26" width="6" height="2" fill="#10505F"/><rect x="719.2" y="26" width="6" height="2" fill="#10505F"/><rect x="733.2" y="26" width="6" height="2" fill="#10505F"/><rect x="747.2" y="26" width="6" height="2" fill="#10505F"/><rect x="761.2" y="26" width="6" height="2" fill="#10505F"/><rect x="775.2" y="26" width="6" height="2" fill="#10505F"/>
  <text x="864" y="29" font-size="11.5" fill="#4C7480" letter-spacing="2">SEC://0x02</text>
  <rect x="0" y="44.8" width="1000" height="1.2" fill="#10505F"/>
  <rect x="0" y="44.8" width="120" height="1.2" fill="#22E6FF">
    <animate attributeName="x" values="-120;1000;-120" dur="9s" repeatCount="indefinite"/>
  </rect>
</svg>
