<svg xmlns="http://www.w3.org/2000/svg" viewBox="0 0 1000 46" width="1000" height="46"
     font-family="ui-monospace, SFMono-Regular, Menlo, Consolas, 'DejaVu Sans Mono', monospace" role="img" aria-label="TOOLCHAIN">

  <defs>
    <pattern id="scanH4" width="3" height="3" patternUnits="userSpaceOnUse">
      <line x1="0" y1="2.5" x2="3" y2="2.5" stroke="#22E6FF" stroke-opacity="0.045" stroke-width="1"/>
    </pattern>
    <pattern id="gridH4" width="34" height="20" patternUnits="userSpaceOnUse">
      <path d="M0 10 L8.5 0 L25.5 0 L34 10 L25.5 20 L8.5 20 Z" fill="none"
            stroke="#22E6FF" stroke-opacity="0.05" stroke-width="0.8"/>
    </pattern>
    <linearGradient id="vigH4" x1="0" y1="0" x2="0" y2="1">
      <stop offset="0%" stop-color="#000" stop-opacity="0.55"/>
      <stop offset="22%" stop-color="#000" stop-opacity="0"/>
      <stop offset="78%" stop-color="#000" stop-opacity="0"/>
      <stop offset="100%" stop-color="#000" stop-opacity="0.6"/>
    </linearGradient>
    <linearGradient id="glowH4" x1="0" y1="0" x2="1" y2="0">
      <stop offset="0%" stop-color="#22E6FF" stop-opacity="0"/>
      <stop offset="50%" stop-color="#22E6FF" stop-opacity="0.85"/>
      <stop offset="100%" stop-color="#22E6FF" stop-opacity="0"/>
    </linearGradient>
    <clipPath id="clipH4"><rect x="0" y="0" width="1000" height="46"/></clipPath>
  </defs>

  <g clip-path="url(#clipH4)">
    <rect width="1000" height="46" fill="#04090C"/>
    <rect width="1000" height="46" fill="url(#gridH4)"/>
    <rect width="1000" height="46" fill="url(#scanH4)"/>
    <rect width="1000" height="46" fill="url(#vigH4)"/>
  </g>
  <path d="M0,0 L121.39999999999999,0 L137.39999999999998,46 L0,46 Z" fill="#22E6FF" fill-opacity="0.14"/>
  <path d="M0,0 L121.39999999999999,0 L137.39999999999998,46 L0,46 Z" fill="none" stroke="#22E6FF" stroke-opacity="0.55" stroke-width="1.4"/>
  <rect x="0" y="0" width="4" height="46" fill="#22E6FF"/>
  <text x="18" y="29" font-size="15" fill="#22E6FF" letter-spacing="3.2">TOOLCHAIN</text>
  <line x1="149.39999999999998" y1="23.0" x2="850" y2="23.0" stroke="#0E3A47" stroke-width="1"/>
  <rect x="155.39999999999998" y="26" width="6" height="2" fill="#10505F"/><rect x="169.39999999999998" y="26" width="6" height="2" fill="#10505F"/><rect x="183.39999999999998" y="26" width="6" height="2" fill="#10505F"/><rect x="197.39999999999998" y="26" width="6" height="2" fill="#10505F"/><rect x="211.39999999999998" y="26" width="6" height="2" fill="#10505F"/><rect x="225.39999999999998" y="26" width="6" height="2" fill="#10505F"/><rect x="239.39999999999998" y="26" width="6" height="2" fill="#10505F"/><rect x="253.39999999999998" y="26" width="6" height="2" fill="#10505F"/><rect x="267.4" y="26" width="6" height="2" fill="#10505F"/><rect x="281.4" y="26" width="6" height="2" fill="#10505F"/><rect x="295.4" y="26" width="6" height="2" fill="#10505F"/><rect x="309.4" y="26" width="6" height="2" fill="#10505F"/><rect x="323.4" y="26" width="6" height="2" fill="#10505F"/><rect x="337.4" y="26" width="6" height="2" fill="#10505F"/><rect x="351.4" y="26" width="6" height="2" fill="#10505F"/><rect x="365.4" y="26" width="6" height="2" fill="#10505F"/><rect x="379.4" y="26" width="6" height="2" fill="#10505F"/><rect x="393.4" y="26" width="6" height="2" fill="#10505F"/><rect x="407.4" y="26" width="6" height="2" fill="#10505F"/><rect x="421.4" y="26" width="6" height="2" fill="#10505F"/><rect x="435.4" y="26" width="6" height="2" fill="#10505F"/><rect x="449.4" y="26" width="6" height="2" fill="#10505F"/><rect x="463.4" y="26" width="6" height="2" fill="#10505F"/><rect x="477.4" y="26" width="6" height="2" fill="#10505F"/><rect x="491.4" y="26" width="6" height="2" fill="#10505F"/><rect x="505.4" y="26" width="6" height="2" fill="#10505F"/><rect x="519.4" y="26" width="6" height="2" fill="#10505F"/><rect x="533.4" y="26" width="6" height="2" fill="#10505F"/><rect x="547.4" y="26" width="6" height="2" fill="#10505F"/><rect x="561.4" y="26" width="6" height="2" fill="#10505F"/><rect x="575.4" y="26" width="6" height="2" fill="#10505F"/><rect x="589.4" y="26" width="6" height="2" fill="#10505F"/><rect x="603.4" y="26" width="6" height="2" fill="#10505F"/><rect x="617.4" y="26" width="6" height="2" fill="#10505F"/><rect x="631.4" y="26" width="6" height="2" fill="#10505F"/><rect x="645.4" y="26" width="6" height="2" fill="#10505F"/><rect x="659.4" y="26" width="6" height="2" fill="#10505F"/><rect x="673.4" y="26" width="6" height="2" fill="#10505F"/><rect x="687.4" y="26" width="6" height="2" fill="#10505F"/><rect x="701.4" y="26" width="6" height="2" fill="#10505F"/><rect x="715.4" y="26" width="6" height="2" fill="#10505F"/><rect x="729.4" y="26" width="6" height="2" fill="#10505F"/><rect x="743.4" y="26" width="6" height="2" fill="#10505F"/><rect x="757.4" y="26" width="6" height="2" fill="#10505F"/><rect x="771.4" y="26" width="6" height="2" fill="#10505F"/>
  <text x="864" y="29" font-size="11.5" fill="#4C7480" letter-spacing="2">SEC://0x05</text>
  <rect x="0" y="44.8" width="1000" height="1.2" fill="#10505F"/>
  <rect x="0" y="44.8" width="120" height="1.2" fill="#22E6FF">
    <animate attributeName="x" values="-120;1000;-120" dur="9s" repeatCount="indefinite"/>
  </rect>
</svg>
