<svg xmlns="http://www.w3.org/2000/svg" viewBox="0 0 1000 256" width="1000" height="256"
     font-family="ui-monospace, SFMono-Regular, Menlo, Consolas, 'DejaVu Sans Mono', monospace" role="img" aria-label="Technology stack">

  <defs>
    <pattern id="scanS" width="3" height="3" patternUnits="userSpaceOnUse">
      <line x1="0" y1="2.5" x2="3" y2="2.5" stroke="#22E6FF" stroke-opacity="0.045" stroke-width="1"/>
    </pattern>
    <pattern id="gridS" width="34" height="20" patternUnits="userSpaceOnUse">
      <path d="M0 10 L8.5 0 L25.5 0 L34 10 L25.5 20 L8.5 20 Z" fill="none"
            stroke="#22E6FF" stroke-opacity="0.05" stroke-width="0.8"/>
    </pattern>
    <linearGradient id="vigS" x1="0" y1="0" x2="0" y2="1">
      <stop offset="0%" stop-color="#000" stop-opacity="0.55"/>
      <stop offset="22%" stop-color="#000" stop-opacity="0"/>
      <stop offset="78%" stop-color="#000" stop-opacity="0"/>
      <stop offset="100%" stop-color="#000" stop-opacity="0.6"/>
    </linearGradient>
    <linearGradient id="glowS" x1="0" y1="0" x2="1" y2="0">
      <stop offset="0%" stop-color="#22E6FF" stop-opacity="0"/>
      <stop offset="50%" stop-color="#22E6FF" stop-opacity="0.85"/>
      <stop offset="100%" stop-color="#22E6FF" stop-opacity="0"/>
    </linearGradient>
    <clipPath id="clipS"><rect x="0" y="0" width="1000" height="256"/></clipPath>
  </defs>

  <g clip-path="url(#clipS)">
    <rect width="1000" height="256" fill="#04090C"/>
    <rect width="1000" height="256" fill="url(#gridS)"/>
    <rect width="1000" height="256" fill="url(#scanS)"/>
    <rect width="1000" height="256" fill="url(#vigS)"/>
  </g>
  <rect x="1" y="1" width="998" height="254" fill="none" stroke="#0E3A47" stroke-width="1.4"/>

  <g stroke="#22E6FF" stroke-width="1.8" fill="none" stroke-linecap="square">
    <path d="M10,28 L10,10 L28,10"/>
    <path d="M972,10 L990,10 L990,28"/>
    <path d="M990,228 L990,246 L972,246"/>
    <path d="M28,246 L10,246 L10,228"/>
  </g>
  <text x="30" y="34" font-size="13" fill="#22E6FF" letter-spacing="3">&#9656; TOOLCHAIN MANIFEST</text>
  <text x="810" y="34" font-size="11" fill="#4C7480" letter-spacing="2">32 MODULES LOADED</text>
  <line x1="30" y1="44" x2="970" y2="44" stroke="#0E3A47" stroke-width="1"/>
  <text x="30" y="74" font-size="12" fill="#22E6FF" letter-spacing="2.4">LANGUAGES</text><line x1="30" y1="84" x2="170" y2="84" stroke="#0E3A47" stroke-width="1"/><g><path d="M196,58 L232.4,58 L232.4,80 L202,80 L196,74 Z" fill="#22E6FF" fill-opacity="0.07" stroke="#10505F" stroke-width="1"/><rect x="196" y="58" width="2.5" height="22" fill="#22E6FF" opacity="0.8"><animate attributeName="opacity" values="0.8;1;0.8" dur="3s" begin="0.00s" repeatCount="indefinite"/></rect><text x="207" y="73.5" font-size="12" fill="#CFE6EC">Go</text></g><g><path d="M241.4,58 L294.2,58 L294.2,80 L247.4,80 L241.4,74 Z" fill="#22E6FF" fill-opacity="0.07" stroke="#10505F" stroke-width="1"/><rect x="241.4" y="58" width="2.5" height="22" fill="#22E6FF" opacity="0.8"><animate attributeName="opacity" values="0.8;1;0.8" dur="3s" begin="0.08s" repeatCount="indefinite"/></rect><text x="252.4" y="73.5" font-size="12" fill="#CFE6EC">Rust</text></g><g><path d="M303.2,58 L372.4,58 L372.4,80 L309.2,80 L303.2,74 Z" fill="#22E6FF" fill-opacity="0.07" stroke="#10505F" stroke-width="1"/><rect x="303.2" y="58" width="2.5" height="22" fill="#22E6FF" opacity="0.8"><animate attributeName="opacity" values="0.8;1;0.8" dur="3s" begin="0.16s" repeatCount="indefinite"/></rect><text x="314.2" y="73.5" font-size="12" fill="#CFE6EC">Python</text></g><g><path d="M381.4,58 L483.4,58 L483.4,80 L387.4,80 L381.4,74 Z" fill="#22E6FF" fill-opacity="0.07" stroke="#10505F" stroke-width="1"/><rect x="381.4" y="58" width="2.5" height="22" fill="#22E6FF" opacity="0.8"><animate attributeName="opacity" values="0.8;1;0.8" dur="3s" begin="0.24s" repeatCount="indefinite"/></rect><text x="392.4" y="73.5" font-size="12" fill="#CFE6EC">TypeScript</text></g><g><path d="M492.4,58 L528.8,58 L528.8,80 L498.4,80 L492.4,74 Z" fill="#22E6FF" fill-opacity="0.07" stroke="#10505F" stroke-width="1"/><rect x="492.4" y="58" width="2.5" height="22" fill="#22E6FF" opacity="0.8"><animate attributeName="opacity" values="0.8;1;0.8" dur="3s" begin="0.32s" repeatCount="indefinite"/></rect><text x="503.4" y="73.5" font-size="12" fill="#CFE6EC">C#</text></g><g><path d="M537.8,58 L590.5999999999999,58 L590.5999999999999,80 L543.8,80 L537.8,74 Z" fill="#22E6FF" fill-opacity="0.07" stroke="#10505F" stroke-width="1"/><rect x="537.8" y="58" width="2.5" height="22" fill="#22E6FF" opacity="0.8"><animate attributeName="opacity" values="0.8;1;0.8" dur="3s" begin="0.40s" repeatCount="indefinite"/></rect><text x="548.8" y="73.5" font-size="12" fill="#CFE6EC">Bash</text></g><g><path d="M599.5999999999999,58 L701.5999999999999,58 L701.5999999999999,80 L605.5999999999999,80 L599.5999999999999,74 Z" fill="#22E6FF" fill-opacity="0.07" stroke="#10505F" stroke-width="1"/><rect x="599.5999999999999" y="58" width="2.5" height="22" fill="#22E6FF" opacity="0.8"><animate attributeName="opacity" values="0.8;1;0.8" dur="3s" begin="0.48s" repeatCount="indefinite"/></rect><text x="610.5999999999999" y="73.5" font-size="12" fill="#CFE6EC">PowerShell</text></g><g><path d="M710.5999999999999,58 L755.1999999999999,58 L755.1999999999999,80 L716.5999999999999,80 L710.5999999999999,74 Z" fill="#22E6FF" fill-opacity="0.07" stroke="#10505F" stroke-width="1"/><rect x="710.5999999999999" y="58" width="2.5" height="22" fill="#22E6FF" opacity="0.8"><animate attributeName="opacity" values="0.8;1;0.8" dur="3s" begin="0.56s" repeatCount="indefinite"/></rect><text x="721.5999999999999" y="73.5" font-size="12" fill="#CFE6EC">C++</text></g><text x="30" y="118" font-size="12" fill="#22E6FF" letter-spacing="2.4">CLOUD / IaC</text><line x1="30" y1="128" x2="170" y2="128" stroke="#0E3A47" stroke-width="1"/><g><path d="M196,102 L289.8,102 L289.8,124 L202,124 L196,118 Z" fill="#22E6FF" fill-opacity="0.07" stroke="#10505F" stroke-width="1"/><rect x="196" y="102" width="2.5" height="22" fill="#22E6FF" opacity="0.8"><animate attributeName="opacity" values="0.8;1;0.8" dur="3s" begin="0.30s" repeatCount="indefinite"/></rect><text x="207" y="117.5" font-size="12" fill="#CFE6EC">Terraform</text></g><g><path d="M298.8,102 L400.8,102 L400.8,124 L304.8,124 L298.8,118 Z" fill="#22E6FF" fill-opacity="0.07" stroke="#10505F" stroke-width="1"/><rect x="298.8" y="102" width="2.5" height="22" fill="#22E6FF" opacity="0.8"><animate attributeName="opacity" values="0.8;1;0.8" dur="3s" begin="0.38s" repeatCount="indefinite"/></rect><text x="309.8" y="117.5" font-size="12" fill="#CFE6EC">Kubernetes</text></g><g><path d="M409.8,102 L462.6,102 L462.6,124 L415.8,124 L409.8,118 Z" fill="#22E6FF" fill-opacity="0.07" stroke="#10505F" stroke-width="1"/><rect x="409.8" y="102" width="2.5" height="22" fill="#22E6FF" opacity="0.8"><animate attributeName="opacity" values="0.8;1;0.8" dur="3s" begin="0.46s" repeatCount="indefinite"/></rect><text x="420.8" y="117.5" font-size="12" fill="#CFE6EC">Helm</text></g><g><path d="M471.6,102 L540.8,102 L540.8,124 L477.6,124 L471.6,118 Z" fill="#22E6FF" fill-opacity="0.07" stroke="#10505F" stroke-width="1"/><rect x="471.6" y="102" width="2.5" height="22" fill="#22E6FF" opacity="0.8"><animate attributeName="opacity" values="0.8;1;0.8" dur="3s" begin="0.54s" repeatCount="indefinite"/></rect><text x="482.6" y="117.5" font-size="12" fill="#CFE6EC">Docker</text></g><g><path d="M549.8,102 L627.1999999999999,102 L627.1999999999999,124 L555.8,124 L549.8,118 Z" fill="#22E6FF" fill-opacity="0.07" stroke="#10505F" stroke-width="1"/><rect x="549.8" y="102" width="2.5" height="22" fill="#22E6FF" opacity="0.8"><animate attributeName="opacity" values="0.8;1;0.8" dur="3s" begin="0.62s" repeatCount="indefinite"/></rect><text x="560.8" y="117.5" font-size="12" fill="#CFE6EC">Proxmox</text></g><g><path d="M636.1999999999999,102 L738.1999999999999,102 L738.1999999999999,124 L642.1999999999999,124 L636.1999999999999,118 Z" fill="#22E6FF" fill-opacity="0.07" stroke="#10505F" stroke-width="1"/><rect x="636.1999999999999" y="102" width="2.5" height="22" fill="#22E6FF" opacity="0.8"><animate attributeName="opacity" values="0.8;1;0.8" dur="3s" begin="0.70s" repeatCount="indefinite"/></rect><text x="647.1999999999999" y="117.5" font-size="12" fill="#CFE6EC">Cloudflare</text></g><g><path d="M747.1999999999999,102 L808.1999999999999,102 L808.1999999999999,124 L753.1999999999999,124 L747.1999999999999,118 Z" fill="#22E6FF" fill-opacity="0.07" stroke="#10505F" stroke-width="1"/><rect x="747.1999999999999" y="102" width="2.5" height="22" fill="#22E6FF" opacity="0.8"><animate attributeName="opacity" values="0.8;1;0.8" dur="3s" begin="0.78s" repeatCount="indefinite"/></rect><text x="758.1999999999999" y="117.5" font-size="12" fill="#CFE6EC">Nginx</text></g><g><path d="M817.1999999999999,102 L878.1999999999999,102 L878.1999999999999,124 L823.1999999999999,124 L817.1999999999999,118 Z" fill="#22E6FF" fill-opacity="0.07" stroke="#10505F" stroke-width="1"/><rect x="817.1999999999999" y="102" width="2.5" height="22" fill="#22E6FF" opacity="0.8"><animate attributeName="opacity" values="0.8;1;0.8" dur="3s" begin="0.86s" repeatCount="indefinite"/></rect><text x="828.1999999999999" y="117.5" font-size="12" fill="#CFE6EC">Linux</text></g><text x="30" y="162" font-size="12" fill="#22E6FF" letter-spacing="2.4">PLATFORM</text><line x1="30" y1="172" x2="170" y2="172" stroke="#0E3A47" stroke-width="1"/><g><path d="M196,146 L322.6,146 L322.6,168 L202,168 L196,162 Z" fill="#22E6FF" fill-opacity="0.07" stroke="#10505F" stroke-width="1"/><rect x="196" y="146" width="2.5" height="22" fill="#22E6FF" opacity="0.8"><animate attributeName="opacity" values="0.8;1;0.8" dur="3s" begin="0.60s" repeatCount="indefinite"/></rect><text x="207" y="161.5" font-size="12" fill="#CFE6EC">OpenTelemetry</text></g><g><path d="M331.6,146 L409.0,146 L409.0,168 L337.6,168 L331.6,162 Z" fill="#22E6FF" fill-opacity="0.07" stroke="#10505F" stroke-width="1"/><rect x="331.6" y="146" width="2.5" height="22" fill="#22E6FF" opacity="0.8"><animate attributeName="opacity" values="0.8;1;0.8" dur="3s" begin="0.68s" repeatCount="indefinite"/></rect><text x="342.6" y="161.5" font-size="12" fill="#CFE6EC">Grafana</text></g><g><path d="M418.0,146 L520.0,146 L520.0,168 L424.0,168 L418.0,162 Z" fill="#22E6FF" fill-opacity="0.07" stroke="#10505F" stroke-width="1"/><rect x="418.0" y="146" width="2.5" height="22" fill="#22E6FF" opacity="0.8"><animate attributeName="opacity" values="0.8;1;0.8" dur="3s" begin="0.76s" repeatCount="indefinite"/></rect><text x="429.0" y="161.5" font-size="12" fill="#CFE6EC">Prometheus</text></g><g><path d="M529.0,146 L631.0,146 L631.0,168 L535.0,168 L529.0,162 Z" fill="#22E6FF" fill-opacity="0.07" stroke="#10505F" stroke-width="1"/><rect x="529.0" y="146" width="2.5" height="22" fill="#22E6FF" opacity="0.8"><animate attributeName="opacity" values="0.8;1;0.8" dur="3s" begin="0.84s" repeatCount="indefinite"/></rect><text x="540.0" y="161.5" font-size="12" fill="#CFE6EC">PostgreSQL</text></g><g><path d="M640.0,146 L701.0,146 L701.0,168 L646.0,168 L640.0,162 Z" fill="#22E6FF" fill-opacity="0.07" stroke="#10505F" stroke-width="1"/><rect x="640.0" y="146" width="2.5" height="22" fill="#22E6FF" opacity="0.8"><animate attributeName="opacity" values="0.8;1;0.8" dur="3s" begin="0.92s" repeatCount="indefinite"/></rect><text x="651.0" y="161.5" font-size="12" fill="#CFE6EC">Redis</text></g><g><path d="M710.0,146 L844.8,146 L844.8,168 L716.0,168 L710.0,162 Z" fill="#22E6FF" fill-opacity="0.07" stroke="#10505F" stroke-width="1"/><rect x="710.0" y="146" width="2.5" height="22" fill="#22E6FF" opacity="0.8"><animate attributeName="opacity" values="0.8;1;0.8" dur="3s" begin="1.00s" repeatCount="indefinite"/></rect><text x="721.0" y="161.5" font-size="12" fill="#CFE6EC">GitHub Actions</text></g><g><path d="M853.8,146 L931.1999999999999,146 L931.1999999999999,168 L859.8,168 L853.8,162 Z" fill="#22E6FF" fill-opacity="0.07" stroke="#10505F" stroke-width="1"/><rect x="853.8" y="146" width="2.5" height="22" fill="#22E6FF" opacity="0.8"><animate attributeName="opacity" values="0.8;1;0.8" dur="3s" begin="1.08s" repeatCount="indefinite"/></rect><text x="864.8" y="161.5" font-size="12" fill="#CFE6EC">Ansible</text></g><g><path d="M940.1999999999999,146 L976.5999999999999,146 L976.5999999999999,168 L946.1999999999999,168 L940.1999999999999,162 Z" fill="#22E6FF" fill-opacity="0.07" stroke="#10505F" stroke-width="1"/><rect x="940.1999999999999" y="146" width="2.5" height="22" fill="#22E6FF" opacity="0.8"><animate attributeName="opacity" values="0.8;1;0.8" dur="3s" begin="1.16s" repeatCount="indefinite"/></rect><text x="951.1999999999999" y="161.5" font-size="12" fill="#CFE6EC">S3</text></g><text x="30" y="206" font-size="12" fill="#22E6FF" letter-spacing="2.4">FRONTEND</text><line x1="30" y1="216" x2="170" y2="216" stroke="#0E3A47" stroke-width="1"/><g><path d="M196,190 L240.6,190 L240.6,212 L202,212 L196,206 Z" fill="#22E6FF" fill-opacity="0.07" stroke="#10505F" stroke-width="1"/><rect x="196" y="190" width="2.5" height="22" fill="#22E6FF" opacity="0.8"><animate attributeName="opacity" values="0.8;1;0.8" dur="3s" begin="0.90s" repeatCount="indefinite"/></rect><text x="207" y="205.5" font-size="12" fill="#CFE6EC">Vue</text></g><g><path d="M249.6,190 L310.6,190 L310.6,212 L255.6,212 L249.6,206 Z" fill="#22E6FF" fill-opacity="0.07" stroke="#10505F" stroke-width="1"/><rect x="249.6" y="190" width="2.5" height="22" fill="#22E6FF" opacity="0.8"><animate attributeName="opacity" values="0.8;1;0.8" dur="3s" begin="0.98s" repeatCount="indefinite"/></rect><text x="260.6" y="205.5" font-size="12" fill="#CFE6EC">Astro</text></g><g><path d="M319.6,190 L397.0,190 L397.0,212 L325.6,212 L319.6,206 Z" fill="#22E6FF" fill-opacity="0.07" stroke="#10505F" stroke-width="1"/><rect x="319.6" y="190" width="2.5" height="22" fill="#22E6FF" opacity="0.8"><animate attributeName="opacity" values="0.8;1;0.8" dur="3s" begin="1.06s" repeatCount="indefinite"/></rect><text x="330.6" y="205.5" font-size="12" fill="#CFE6EC">Node.js</text></g><g><path d="M406.0,190 L491.6,190 L491.6,212 L412.0,212 L406.0,206 Z" fill="#22E6FF" fill-opacity="0.07" stroke="#10505F" stroke-width="1"/><rect x="406.0" y="190" width="2.5" height="22" fill="#22E6FF" opacity="0.8"><animate attributeName="opacity" values="0.8;1;0.8" dur="3s" begin="1.14s" repeatCount="indefinite"/></rect><text x="417.0" y="205.5" font-size="12" fill="#CFE6EC">Tailwind</text></g><g><path d="M500.6,190 L586.2,190 L586.2,212 L506.6,212 L500.6,206 Z" fill="#22E6FF" fill-opacity="0.07" stroke="#10505F" stroke-width="1"/><rect x="500.6" y="190" width="2.5" height="22" fill="#22E6FF" opacity="0.8"><animate attributeName="opacity" values="0.8;1;0.8" dur="3s" begin="1.22s" repeatCount="indefinite"/></rect><text x="511.6" y="205.5" font-size="12" fill="#CFE6EC">Electron</text></g><g><path d="M595.2,190 L648.0,190 L648.0,212 L601.2,212 L595.2,206 Z" fill="#22E6FF" fill-opacity="0.07" stroke="#10505F" stroke-width="1"/><rect x="595.2" y="190" width="2.5" height="22" fill="#22E6FF" opacity="0.8"><animate attributeName="opacity" values="0.8;1;0.8" dur="3s" begin="1.30s" repeatCount="indefinite"/></rect><text x="606.2" y="205.5" font-size="12" fill="#CFE6EC">Vite</text></g><g><path d="M657.0,190 L709.8,190 L709.8,212 L663.0,212 L657.0,206 Z" fill="#22E6FF" fill-opacity="0.07" stroke="#10505F" stroke-width="1"/><rect x="657.0" y="190" width="2.5" height="22" fill="#22E6FF" opacity="0.8"><animate attributeName="opacity" values="0.8;1;0.8" dur="3s" begin="1.38s" repeatCount="indefinite"/></rect><text x="668.0" y="205.5" font-size="12" fill="#CFE6EC">REST</text></g><g><path d="M718.8,190 L771.5999999999999,190 L771.5999999999999,212 L724.8,212 L718.8,206 Z" fill="#22E6FF" fill-opacity="0.07" stroke="#10505F" stroke-width="1"/><rect x="718.8" y="190" width="2.5" height="22" fill="#22E6FF" opacity="0.8"><animate attributeName="opacity" values="0.8;1;0.8" dur="3s" begin="1.46s" repeatCount="indefinite"/></rect><text x="729.8" y="205.5" font-size="12" fill="#CFE6EC">gRPC</text></g>
  <g clip-path="url(#clipS)">
    <rect x="-160" y="0" width="160" height="256" fill="url(#glowS)" opacity="0.30">
      <animate attributeName="x" values="-160;1000;-160" dur="9s" repeatCount="indefinite"/>
    </rect>
  </g>
</svg>
